<svg version="1.1" viewBox="0 0 512 512" xmlns="http://www.w3.org/2000/svg" xmlns:xlink="http://www.w3.org/1999/xlink"><defs><linearGradient id="linearGradient12174" x1="70.4" x2="410" y1="256" y2="323" gradientTransform="matrix(1.77 0 0 1.77 -196 -262)" gradientUnits="userSpaceOnUse"><stop stop-color="#0070ff" offset="0"/><stop stop-color="#9d00ff" stop-opacity=".947" offset="1"/></linearGradient></defs><path d="m181 40.7c-43.2 75.4-88.9 154-87.3 151 1.65-2.88-44.7 79.6-88.9 156l68.5 123c89.5-0.377 186 0.107 183 0.117-3.34 0.01 92.8-1.05 182-1.23l69.3-123c-44.7-76.7-92-160-90.3-157 1.63 2.8-44.4-74.9-87.9-150zm76.2 69c2.34 15.3 45.6 152 44.2 150-1.39-2.44 94 105 106 115-14.4-5.62-154-36.5-152-36.5 2.81 0.0184-138 29.1-152 34.5 12.1-9.7 109-116 107-113-1.42 2.42 43.7-134 46.2-149z" fill="url(#linearGradient12174)" fill-rule="evenodd" stroke-width="1.77"/></svg>
